<?xml version="1.0" encoding="UTF-8" standalone="no"?>
<!-- Created with Inkscape (http://www.inkscape.org/) -->

<svg
   width="8.0869093cm"
   height="5.4546471cm"
   viewBox="0 0 286.54403 193.27489"
   id="svg2"
   version="1.1"
   inkscape:version="1.1 (c4e8f9e, 2021-05-24)"
   sodipodi:docname="reservoir-generic.svg"
   xmlns:inkscape="http://www.inkscape.org/namespaces/inkscape"
   xmlns:sodipodi="http://sodipodi.sourceforge.net/DTD/sodipodi-0.dtd"
   xmlns="http://www.w3.org/2000/svg"
   xmlns:svg="http://www.w3.org/2000/svg"
   xmlns:rdf="http://www.w3.org/1999/02/22-rdf-syntax-ns#"
   xmlns:cc="http://creativecommons.org/ns#"
   xmlns:dc="http://purl.org/dc/elements/1.1/">
  <defs
     id="defs4">
    <rect
       x="90.889824"
       y="119.11335"
       width="149.52647"
       height="66.249641"
       id="rect3274" />
    <marker
       inkscape:isstock="true"
       style="overflow:visible"
       id="marker6829"
       refX="0"
       refY="0"
       orient="auto"
       inkscape:stockid="Arrow1Mend">
      <path
         transform="matrix(-0.4,0,0,-0.4,-4,0)"
         style="fill:#000000;fill-opacity:1;fill-rule:evenodd;stroke:#000000;stroke-width:1pt;stroke-opacity:1"
         d="M 0,0 5,-5 -12.5,0 5,5 Z"
         id="path6831" />
    </marker>
    <marker
       inkscape:isstock="true"
       style="overflow:visible"
       id="marker6627"
       refX="0"
       refY="0"
       orient="auto"
       inkscape:stockid="Arrow1Mstart">
      <path
         transform="matrix(0.4,0,0,0.4,4,0)"
         style="fill:#000000;fill-opacity:1;fill-rule:evenodd;stroke:#000000;stroke-width:1pt;stroke-opacity:1"
         d="M 0,0 5,-5 -12.5,0 5,5 Z"
         id="path6629" />
    </marker>
    <marker
       inkscape:stockid="Arrow1Mend"
       orient="auto"
       refY="0"
       refX="0"
       id="marker5136"
       style="overflow:visible"
       inkscape:isstock="true"
       inkscape:collect="always">
      <path
         id="path4495"
         d="M 0,0 5,-5 -12.5,0 5,5 Z"
         style="fill:#000000;fill-opacity:1;fill-rule:evenodd;stroke:#000000;stroke-width:1pt;stroke-opacity:1"
         transform="matrix(-0.4,0,0,-0.4,-4,0)" />
    </marker>
    <marker
       inkscape:stockid="Arrow1Lend"
       orient="auto"
       refY="0"
       refX="0"
       id="Arrow1Lend"
       style="overflow:visible"
       inkscape:isstock="true">
      <path
         id="path4489"
         d="M 0,0 5,-5 -12.5,0 5,5 Z"
         style="fill:#000000;fill-opacity:1;fill-rule:evenodd;stroke:#000000;stroke-width:1pt;stroke-opacity:1"
         transform="matrix(-0.8,0,0,-0.8,-10,0)" />
    </marker>
    <marker
       inkscape:stockid="Arrow1Mstart"
       orient="auto"
       refY="0"
       refX="0"
       id="Arrow1Mstart"
       style="overflow:visible"
       inkscape:isstock="true"
       inkscape:collect="always">
      <path
         id="path4492"
         d="M 0,0 5,-5 -12.5,0 5,5 Z"
         style="fill:#000000;fill-opacity:1;fill-rule:evenodd;stroke:#000000;stroke-width:1pt;stroke-opacity:1"
         transform="matrix(0.4,0,0,0.4,4,0)" />
    </marker>
    <marker
       inkscape:isstock="true"
       style="overflow:visible"
       id="marker13128"
       refX="0"
       refY="0"
       orient="auto"
       inkscape:stockid="Arrow1Mend">
      <path
         transform="matrix(-0.4,0,0,-0.4,-4,0)"
         style="fill:#13a000;fill-opacity:1;fill-rule:evenodd;stroke:#13a000;stroke-width:1pt;stroke-opacity:1"
         d="M 0,0 5,-5 -12.5,0 5,5 Z"
         id="path13130" />
    </marker>
    <marker
       inkscape:stockid="Arrow1Mend"
       orient="auto"
       refY="0"
       refX="0"
       id="marker12906"
       style="overflow:visible"
       inkscape:isstock="true"
       inkscape:collect="always">
      <path
         id="path12908"
         d="M 0,0 5,-5 -12.5,0 5,5 Z"
         style="fill:#13a000;fill-opacity:1;fill-rule:evenodd;stroke:#13a000;stroke-width:1pt;stroke-opacity:1"
         transform="matrix(-0.4,0,0,-0.4,-4,0)" />
    </marker>
    <marker
       inkscape:isstock="true"
       style="overflow:visible"
       id="marker12732"
       refX="0"
       refY="0"
       orient="auto"
       inkscape:stockid="Arrow1Mend"
       inkscape:collect="always">
      <path
         transform="matrix(-0.4,0,0,-0.4,-4,0)"
         style="fill:#13a000;fill-opacity:1;fill-rule:evenodd;stroke:#13a000;stroke-width:1pt;stroke-opacity:1"
         d="M 0,0 5,-5 -12.5,0 5,5 Z"
         id="path12734" />
    </marker>
    <marker
       inkscape:stockid="Arrow1Mend"
       orient="auto"
       refY="0"
       refX="0"
       id="marker12180"
       style="overflow:visible"
       inkscape:isstock="true"
       inkscape:collect="always">
      <path
         id="path12182"
         d="M 0,0 5,-5 -12.5,0 5,5 Z"
         style="fill:#13a000;fill-opacity:1;fill-rule:evenodd;stroke:#13a000;stroke-width:1pt;stroke-opacity:1"
         transform="matrix(-0.4,0,0,-0.4,-4,0)" />
    </marker>
    <marker
       inkscape:isstock="true"
       style="overflow:visible"
       id="marker11664"
       refX="0"
       refY="0"
       orient="auto"
       inkscape:stockid="Arrow1Mend"
       inkscape:collect="always">
      <path
         transform="matrix(-0.4,0,0,-0.4,-4,0)"
         style="fill:#13a000;fill-opacity:1;fill-rule:evenodd;stroke:#13a000;stroke-width:1pt;stroke-opacity:1"
         d="M 0,0 5,-5 -12.5,0 5,5 Z"
         id="path11666" />
    </marker>
    <marker
       inkscape:stockid="Arrow1Mend"
       orient="auto"
       refY="0"
       refX="0"
       id="marker11196"
       style="overflow:visible"
       inkscape:isstock="true"
       inkscape:collect="always">
      <path
         id="path11198"
         d="M 0,0 5,-5 -12.5,0 5,5 Z"
         style="fill:#13a000;fill-opacity:1;fill-rule:evenodd;stroke:#13a000;stroke-width:1pt;stroke-opacity:1"
         transform="matrix(-0.4,0,0,-0.4,-4,0)" />
    </marker>
    <marker
       inkscape:isstock="true"
       style="overflow:visible"
       id="marker10248"
       refX="0"
       refY="0"
       orient="auto"
       inkscape:stockid="Arrow1Mend"
       inkscape:collect="always">
      <path
         transform="matrix(-0.4,0,0,-0.4,-4,0)"
         style="fill:#13a000;fill-opacity:1;fill-rule:evenodd;stroke:#13a000;stroke-width:1pt;stroke-opacity:1"
         d="M 0,0 5,-5 -12.5,0 5,5 Z"
         id="path10250" />
    </marker>
    <marker
       inkscape:stockid="Arrow1Mend"
       orient="auto"
       refY="0"
       refX="0"
       id="marker9666"
       style="overflow:visible"
       inkscape:isstock="true"
       inkscape:collect="always">
      <path
         id="path9668"
         d="M 0,0 5,-5 -12.5,0 5,5 Z"
         style="fill:#13a000;fill-opacity:1;fill-rule:evenodd;stroke:#13a000;stroke-width:1pt;stroke-opacity:1"
         transform="matrix(-0.4,0,0,-0.4,-4,0)" />
    </marker>
    <marker
       inkscape:isstock="true"
       style="overflow:visible"
       id="marker9294"
       refX="0"
       refY="0"
       orient="auto"
       inkscape:stockid="Arrow1Mend"
       inkscape:collect="always">
      <path
         transform="matrix(-0.4,0,0,-0.4,-4,0)"
         style="fill:#13a000;fill-opacity:1;fill-rule:evenodd;stroke:#13a000;stroke-width:1pt;stroke-opacity:1"
         d="M 0,0 5,-5 -12.5,0 5,5 Z"
         id="path9296" />
    </marker>
    <marker
       inkscape:stockid="Arrow1Mend"
       orient="auto"
       refY="0"
       refX="0"
       id="marker8640"
       style="overflow:visible"
       inkscape:isstock="true"
       inkscape:collect="always">
      <path
         id="path8642"
         d="M 0,0 5,-5 -12.5,0 5,5 Z"
         style="fill:#13a000;fill-opacity:1;fill-rule:evenodd;stroke:#13a000;stroke-width:1pt;stroke-opacity:1"
         transform="matrix(-0.4,0,0,-0.4,-4,0)" />
    </marker>
    <marker
       inkscape:isstock="true"
       style="overflow:visible"
       id="marker8316"
       refX="0"
       refY="0"
       orient="auto"
       inkscape:stockid="Arrow1Mend"
       inkscape:collect="always">
      <path
         transform="matrix(-0.4,0,0,-0.4,-4,0)"
         style="fill:#13a000;fill-opacity:1;fill-rule:evenodd;stroke:#13a000;stroke-width:1pt;stroke-opacity:1"
         d="M 0,0 5,-5 -12.5,0 5,5 Z"
         id="path8318" />
    </marker>
    <marker
       inkscape:stockid="Arrow1Mend"
       orient="auto"
       refY="0"
       refX="0"
       id="marker7170"
       style="overflow:visible"
       inkscape:isstock="true">
      <path
         id="path7172"
         d="M 0,0 5,-5 -12.5,0 5,5 Z"
         style="fill:#a00000;fill-opacity:1;fill-rule:evenodd;stroke:#a00000;stroke-width:1pt;stroke-opacity:1"
         transform="matrix(-0.4,0,0,-0.4,-4,0)" />
    </marker>
    <marker
       inkscape:isstock="true"
       style="overflow:visible"
       id="marker6642"
       refX="0"
       refY="0"
       orient="auto"
       inkscape:stockid="Arrow1Mend"
       inkscape:collect="always">
      <path
         transform="matrix(-0.4,0,0,-0.4,-4,0)"
         style="fill:#a00000;fill-opacity:1;fill-rule:evenodd;stroke:#a00000;stroke-width:1pt;stroke-opacity:1"
         d="M 0,0 5,-5 -12.5,0 5,5 Z"
         id="path6644" />
    </marker>
    <marker
       inkscape:stockid="Arrow1Mend"
       orient="auto"
       refY="0"
       refX="0"
       id="marker6300"
       style="overflow:visible"
       inkscape:isstock="true"
       inkscape:collect="always">
      <path
         id="path6302"
         d="M 0,0 5,-5 -12.5,0 5,5 Z"
         style="fill:#a00000;fill-opacity:1;fill-rule:evenodd;stroke:#a00000;stroke-width:1pt;stroke-opacity:1"
         transform="matrix(-0.4,0,0,-0.4,-4,0)" />
    </marker>
    <marker
       inkscape:stockid="Arrow1Mend"
       orient="auto"
       refY="0"
       refX="0"
       id="marker5050"
       style="overflow:visible"
       inkscape:isstock="true">
      <path
         id="path5052"
         d="M 0,0 5,-5 -12.5,0 5,5 Z"
         style="fill:#0800a0;fill-opacity:1;fill-rule:evenodd;stroke:#0800a0;stroke-width:1pt;stroke-opacity:1"
         transform="matrix(-0.4,0,0,-0.4,-4,0)" />
    </marker>
    <marker
       inkscape:isstock="true"
       style="overflow:visible"
       id="marker4892"
       refX="0"
       refY="0"
       orient="auto"
       inkscape:stockid="Arrow1Mend">
      <path
         transform="matrix(-0.4,0,0,-0.4,-4,0)"
         style="fill:#0800a0;fill-opacity:1;fill-rule:evenodd;stroke:#0800a0;stroke-width:1pt;stroke-opacity:1"
         d="M 0,0 5,-5 -12.5,0 5,5 Z"
         id="path4894" />
    </marker>
    <marker
       inkscape:isstock="true"
       style="overflow:visible"
       id="marker4834"
       refX="0"
       refY="0"
       orient="auto"
       inkscape:stockid="Arrow1Mend">
      <path
         transform="matrix(-0.4,0,0,-0.4,-4,0)"
         style="fill:#0800a0;fill-opacity:1;fill-rule:evenodd;stroke:#0800a0;stroke-width:1pt;stroke-opacity:1"
         d="M 0,0 5,-5 -12.5,0 5,5 Z"
         id="path4836" />
    </marker>
    <marker
       inkscape:isstock="true"
       style="overflow:visible"
       id="marker4782"
       refX="0"
       refY="0"
       orient="auto"
       inkscape:stockid="Arrow1Mend">
      <path
         transform="matrix(-0.4,0,0,-0.4,-4,0)"
         style="fill:#0800a0;fill-opacity:1;fill-rule:evenodd;stroke:#0800a0;stroke-width:1pt;stroke-opacity:1"
         d="M 0,0 5,-5 -12.5,0 5,5 Z"
         id="path4784" />
    </marker>
    <marker
       inkscape:isstock="true"
       style="overflow:visible"
       id="marker4736"
       refX="0"
       refY="0"
       orient="auto"
       inkscape:stockid="Arrow1Mend">
      <path
         transform="matrix(-0.4,0,0,-0.4,-4,0)"
         style="fill:#0800a0;fill-opacity:1;fill-rule:evenodd;stroke:#0800a0;stroke-width:1pt;stroke-opacity:1"
         d="M 0,0 5,-5 -12.5,0 5,5 Z"
         id="path4738" />
    </marker>
    <marker
       inkscape:isstock="true"
       style="overflow:visible"
       id="marker4696"
       refX="0"
       refY="0"
       orient="auto"
       inkscape:stockid="Arrow1Mend">
      <path
         transform="matrix(-0.4,0,0,-0.4,-4,0)"
         style="fill:#0800a0;fill-opacity:1;fill-rule:evenodd;stroke:#0800a0;stroke-width:1pt;stroke-opacity:1"
         d="M 0,0 5,-5 -12.5,0 5,5 Z"
         id="path4698" />
    </marker>
    <marker
       inkscape:isstock="true"
       style="overflow:visible"
       id="marker4662"
       refX="0"
       refY="0"
       orient="auto"
       inkscape:stockid="Arrow1Mend">
      <path
         transform="matrix(-0.4,0,0,-0.4,-4,0)"
         style="fill:#0800a0;fill-opacity:1;fill-rule:evenodd;stroke:#0800a0;stroke-width:1pt;stroke-opacity:1"
         d="M 0,0 5,-5 -12.5,0 5,5 Z"
         id="path4664" />
    </marker>
    <marker
       inkscape:isstock="true"
       style="overflow:visible"
       id="marker4634"
       refX="0"
       refY="0"
       orient="auto"
       inkscape:stockid="Arrow1Mend">
      <path
         transform="matrix(-0.4,0,0,-0.4,-4,0)"
         style="fill:#0800a0;fill-opacity:1;fill-rule:evenodd;stroke:#0800a0;stroke-width:1pt;stroke-opacity:1"
         d="M 0,0 5,-5 -12.5,0 5,5 Z"
         id="path4636" />
    </marker>
    <marker
       inkscape:stockid="Arrow1Mend"
       orient="auto"
       refY="0"
       refX="0"
       id="Arrow1Mend"
       style="overflow:visible"
       inkscape:isstock="true">
      <path
         id="path4271"
         d="M 0,0 5,-5 -12.5,0 5,5 Z"
         style="fill:#0800a0;fill-opacity:1;fill-rule:evenodd;stroke:#0800a0;stroke-width:1pt;stroke-opacity:1"
         transform="matrix(-0.4,0,0,-0.4,-4,0)" />
    </marker>
  </defs>
  <sodipodi:namedview
     id="base"
     pagecolor="#ffffff"
     bordercolor="#666666"
     borderopacity="1.0"
     inkscape:pageopacity="0.0"
     inkscape:pageshadow="2"
     inkscape:zoom="1.979899"
     inkscape:cx="157.33126"
     inkscape:cy="115.40993"
     inkscape:document-units="px"
     inkscape:current-layer="layer1"
     showgrid="false"
     units="cm"
     inkscape:window-width="1680"
     inkscape:window-height="947"
     inkscape:window-x="0"
     inkscape:window-y="23"
     inkscape:window-maximized="1"
     inkscape:pagecheckerboard="0"
     fit-margin-top="0"
     fit-margin-left="0"
     fit-margin-right="0"
     fit-margin-bottom="0" />
  <metadata
     id="metadata7">
    <rdf:RDF>
      <cc:Work
         rdf:about="">
        <dc:format>image/svg+xml</dc:format>
        <dc:type
           rdf:resource="http://purl.org/dc/dcmitype/StillImage" />
      </cc:Work>
    </rdf:RDF>
  </metadata>
  <g
     inkscape:label="Layer 1"
     inkscape:groupmode="layer"
     id="layer1"
     transform="translate(4.2600546,-841.009)">
    <path
       style="fill:none;fill-rule:evenodd;stroke:#a00000;stroke-width:1;stroke-linecap:butt;stroke-linejoin:miter;stroke-miterlimit:4;stroke-dasharray:1, 1;stroke-dashoffset:0;stroke-opacity:1"
       d="M 54.285714,873.43368 8.5714285,936.64797 4.6428571,873.07654"
       id="path7061"
       inkscape:connector-curvature="0" />
    <path
       style="fill:none;fill-rule:evenodd;stroke:#a00000;stroke-width:1px;stroke-linecap:butt;stroke-linejoin:miter;stroke-opacity:1"
       d="m 5.0000004,866.46939 c 6.0714276,-6.25 7.6785706,-17.67857 12.3214276,-16.96428 5.367882,0.82584 2.321428,4.28571 6.428572,11.42856 1.258832,2.18927 5.178571,6.78573 8.214285,5.35715 3.035715,-1.42857 3.214286,-10.89286 6.964286,-11.42857 3.75,-0.53572 7.678571,4.82143 7.678571,4.82143"
       id="path6605"
       inkscape:connector-curvature="0"
       sodipodi:nodetypes="cssssc" />
    <path
       inkscape:connector-curvature="0"
       id="path7168"
       d="m 14.137781,936.43259 c 11.003329,-1.06339 14.065327,3.02983 26.750899,7.92955"
       style="fill:none;fill-rule:evenodd;stroke:#a00000;stroke-width:1px;stroke-linecap:butt;stroke-linejoin:miter;stroke-opacity:1;marker-end:url(#marker7170)"
       sodipodi:nodetypes="cc" />
    <g
       aria-label="Wout"
       transform="translate(192.83581,942.41015)"
       id="flowRoot4155"
       style="line-height:0.01%;letter-spacing:0px;word-spacing:0px;baseline-shift:baseline;fill:#00780e;stroke-width:1px">
      <path
         id="path1304"
         style="baseline-shift:sub"
         d="m 43.826641,19.127969 v -0.885 h 1.29 v -1.89 h 1.05 v 1.89 h 2.115 v 0.885 h -2.115 v 3.69 q 0,1.305 0.81,1.305 0.63,0 1.32,-0.495 l 0.24,0.885 q -1.065,0.57 -2.22,0.57 -1.23,0 -1.23,-1.92 v -4.035 z m -6.833672,3.96 v -4.845 h 1.17 v 5.025 q 0.015,0.525 0.24,0.75 0.24,0.225 0.96,0.225 0.78,0 1.245,-0.405 0.48,-0.42 0.54,-0.96 0.015,-0.15 0.015,-0.435 v -4.2 h 1.17 v 6.675 h -1.14 v -0.72 q -1.02,0.885 -2.625,0.885 -0.45,0 -0.765,-0.15 -0.315,-0.135 -0.48,-0.315 -0.15,-0.18 -0.24,-0.495 -0.075,-0.33 -0.09,-0.51 0,-0.195 0,-0.525 z m -8.25,-1.485 q 0,-1.515 0.96,-2.55 0.975,-1.05 2.325,-1.05 1.41,0 2.355,1.095 0.945,1.08 0.945,2.52 0,1.485 -0.99,2.475 -0.99,0.99 -2.31,0.99 -1.32,0 -2.31,-0.99 -0.975,-1.005 -0.975,-2.49 z m 1.17,-0.15 q 0,1.32 0.63,1.995 0.645,0.675 1.485,0.675 0.84,0 1.47,-0.675 0.645,-0.69 0.645,-1.995 0,-1.26 -0.645,-1.89 -0.63,-0.63 -1.47,-0.63 -0.825,0 -1.47,0.63 -0.645,0.63 -0.645,1.89 z m -13.355391,-9.945 h 1.305 l 0.435,5.745 0.09,1.8 0.03,1.23 -0.03,0.57 q 0.195,-0.75 1.545,-3.435 l 2.955,-5.91 h 1.215 q 0.585,6.9 0.585,8.85 0,0.195 -0.015,0.51 0.135,-0.585 1.62,-3.54 l 2.925,-5.82 h 1.08 l -5.265,10.41 h -1.305 q -0.585,-6.84 -0.585,-8.775 l 0.015,-0.57 -0.21,0.555 -1.215,2.55 -3.12,6.24 h -1.215 z" />
    </g>
    <rect
       style="opacity:1;fill:none;fill-opacity:1;stroke:#00a013;stroke-width:1.25;stroke-linecap:round;stroke-miterlimit:4;stroke-dasharray:5, 5;stroke-dashoffset:0;stroke-opacity:1"
       id="rect4254"
       width="56.002186"
       height="37.978645"
       x="198.24371"
       y="940.08917" />
    <circle
       style="opacity:1;fill:#c80000;fill-opacity:1;stroke:#a00000;stroke-width:1.25;stroke-linecap:round;stroke-miterlimit:4;stroke-dasharray:none;stroke-dashoffset:0;stroke-opacity:1"
       id="circle6184"
       cx="8.6885757"
       cy="936.34705"
       r="5.0507627" />
    <circle
       r="5.0507627"
       cy="957.06134"
       cx="8.6885757"
       id="circle6186"
       style="opacity:1;fill:#c80000;fill-opacity:1;stroke:#a00000;stroke-width:1.25;stroke-linecap:round;stroke-miterlimit:4;stroke-dasharray:none;stroke-dashoffset:0;stroke-opacity:1" />
    <circle
       style="opacity:1;fill:#c80000;fill-opacity:1;stroke:#a00000;stroke-width:1.25;stroke-linecap:round;stroke-miterlimit:4;stroke-dasharray:none;stroke-dashoffset:0;stroke-opacity:1"
       id="circle6188"
       cx="8.6885757"
       cy="979.56134"
       r="5.0507627" />
    <path
       inkscape:connector-curvature="0"
       id="path6298"
       d="m 14.137781,957.50402 c 0,0 10.02469,2.53218 24.655758,4.71526"
       style="fill:none;fill-rule:evenodd;stroke:#a00000;stroke-width:1px;stroke-linecap:butt;stroke-linejoin:miter;stroke-opacity:1;marker-end:url(#marker6300)"
       sodipodi:nodetypes="cc" />
    <path
       sodipodi:nodetypes="cc"
       style="fill:none;fill-rule:evenodd;stroke:#a00000;stroke-width:1px;stroke-linecap:butt;stroke-linejoin:miter;stroke-opacity:1;marker-end:url(#marker6642)"
       d="m 14.137781,979.28973 c 8.635784,4.14521 15.305689,4.23745 27.204026,2.90162"
       id="path6640"
       inkscape:connector-curvature="0" />
    <path
       style="fill:none;fill-rule:evenodd;stroke:#13a000;stroke-width:1px;stroke-linecap:butt;stroke-linejoin:miter;stroke-opacity:1;marker-end:url(#marker8316)"
       d="m 105.92349,902.14688 c 27.14286,-10.35715 64.28571,-0.71429 91.78572,41.07143"
       id="path8308"
       inkscape:connector-curvature="0"
       sodipodi:nodetypes="cc" />
    <path
       sodipodi:nodetypes="cc"
       inkscape:connector-curvature="0"
       id="path8638"
       d="m 148.42349,926.07545 c 16.42858,-6.78572 17.14285,13.92857 48.92858,20"
       style="fill:none;fill-rule:evenodd;stroke:#13a000;stroke-width:1px;stroke-linecap:butt;stroke-linejoin:miter;stroke-opacity:1;marker-end:url(#marker8640)" />
    <path
       style="fill:none;fill-rule:evenodd;stroke:#13a000;stroke-width:1px;stroke-linecap:butt;stroke-linejoin:miter;stroke-opacity:1;marker-end:url(#marker9294)"
       d="m 85.566347,944.64688 c 34.642863,-16.42858 80.357133,1.07143 112.142863,7.14286"
       id="path9292"
       inkscape:connector-curvature="0"
       sodipodi:nodetypes="cc" />
    <path
       sodipodi:nodetypes="cc"
       inkscape:connector-curvature="0"
       id="path9664"
       d="m 152.35206,957.50402 c 8.92858,2.14285 20.35713,-2.5 45.71429,10e-6"
       style="fill:none;fill-rule:evenodd;stroke:#13a000;stroke-width:1px;stroke-linecap:butt;stroke-linejoin:miter;stroke-opacity:1;marker-end:url(#marker9666)" />
    <path
       style="fill:none;fill-rule:evenodd;stroke:#13a000;stroke-width:1px;stroke-linecap:butt;stroke-linejoin:miter;stroke-opacity:1;marker-end:url(#marker10248)"
       d="m 85.209207,951.43259 c 18.571433,15.35714 82.142843,17.5 112.500003,10.35715"
       id="path10246"
       inkscape:connector-curvature="0"
       sodipodi:nodetypes="cc" />
    <path
       sodipodi:nodetypes="cc"
       inkscape:connector-curvature="0"
       id="path11194"
       d="m 116.28063,979.28973 c 19.28572,6.07143 51.07142,-5 81.42858,-12.14285"
       style="fill:none;fill-rule:evenodd;stroke:#13a000;stroke-width:1px;stroke-linecap:butt;stroke-linejoin:miter;stroke-opacity:1;marker-end:url(#marker11196)" />
    <path
       style="fill:none;fill-rule:evenodd;stroke:#13a000;stroke-width:1px;stroke-linecap:butt;stroke-linejoin:miter;stroke-opacity:1;marker-end:url(#marker11664)"
       d="M 84.852063,999.64687 C 112.70921,1014.2897 167.35205,979.28973 197.70921,972.14688"
       id="path11662"
       inkscape:connector-curvature="0"
       sodipodi:nodetypes="cc" />
    <path
       sodipodi:nodetypes="cc"
       inkscape:connector-curvature="0"
       id="path12178"
       d="m 125.2092,1018.2183 c 27.85715,14.6429 42.14285,-25.71428 72.14287,-41.7857"
       style="fill:none;fill-rule:evenodd;stroke:#13a000;stroke-width:1px;stroke-linecap:butt;stroke-linejoin:miter;stroke-opacity:1;marker-end:url(#marker12180)" />
    <path
       style="fill:none;fill-rule:evenodd;stroke:#13a000;stroke-width:1px;stroke-linecap:butt;stroke-linejoin:miter;stroke-opacity:1;marker-end:url(#marker12732)"
       d="m 255.20921,958.93259 c 11.42857,0 23.21428,0 23.21428,0"
       id="path12724"
       inkscape:connector-curvature="0" />
    <path
       inkscape:connector-curvature="0"
       id="path12904"
       d="m 255.20921,946.07545 c 11.42857,0 23.21428,0 23.21428,0"
       style="fill:none;fill-rule:evenodd;stroke:#13a000;stroke-width:1px;stroke-linecap:butt;stroke-linejoin:miter;stroke-opacity:1;marker-end:url(#marker12906)" />
    <path
       style="fill:none;fill-rule:evenodd;stroke:#13a000;stroke-width:1px;stroke-linecap:butt;stroke-linejoin:miter;stroke-opacity:1;marker-end:url(#marker13128)"
       d="m 255.20921,971.43259 c 11.42857,0 23.21428,0 23.21428,0"
       id="path13126"
       inkscape:connector-curvature="0" />
    <path
       style="fill:none;fill-rule:evenodd;stroke:#000000;stroke-width:1px;stroke-linecap:butt;stroke-linejoin:miter;stroke-opacity:1;marker-start:url(#marker6627);marker-end:url(#marker6829)"
       d="M 53.170428,872.77918 H 4.6831064 v -29.7995"
       id="path4480"
       inkscape:connector-curvature="0"
       sodipodi:nodetypes="ccc" />
    <flowRoot
       xml:space="preserve"
       id="flowRoot6607"
       style="font-style:normal;font-weight:normal;line-height:0.01%;font-family:sans-serif;letter-spacing:0px;word-spacing:0px;fill:#000000;fill-opacity:1;stroke:none;stroke-width:1px;stroke-linecap:butt;stroke-linejoin:miter;stroke-opacity:1"
       transform="translate(8.9285714,823.33525)"><flowRegion
         id="flowRegion6609"><rect
           id="rect6611"
           width="52.142857"
           height="41.785713"
           x="11.785714"
           y="48.312714"
           style="font-size:12.5px" /></flowRegion><flowPara
         id="flowPara6613"
         style="font-style:italic;font-variant:normal;font-weight:normal;font-stretch:normal;font-size:10px;line-height:1.25;font-family:sans-serif;-inkscape-font-specification:'sans-serif Italic'">t</flowPara></flowRoot>
    <path
       sodipodi:nodetypes="cssssc"
       inkscape:connector-curvature="0"
       id="path6615"
       d="m 118.10322,866.46939 c 6.07143,-6.25 5.89286,-10.17857 10.53572,-9.46428 5.36789,0.82584 4.10714,-3.21429 8.21429,3.92856 1.25883,2.18927 3.75,-8.92856 6.78571,-10.35714 3.03572,-1.42857 4.64286,4.82143 8.39286,4.28572 3.75,-0.53572 9.82143,10.89286 9.82143,10.89286"
       style="fill:none;fill-rule:evenodd;stroke:#0800a0;stroke-width:1px;stroke-linecap:butt;stroke-linejoin:miter;stroke-opacity:1" />
    <path
       sodipodi:nodetypes="ccc"
       inkscape:connector-curvature="0"
       id="path6617"
       d="m 166.27365,872.77918 h -48.48732 v -29.7995"
       style="fill:none;fill-rule:evenodd;stroke:#000000;stroke-width:1px;stroke-linecap:butt;stroke-linejoin:miter;stroke-opacity:1;marker-start:url(#Arrow1Mstart);marker-end:url(#marker5136)" />
    <flowRoot
       transform="translate(122.03179,823.33525)"
       style="font-style:normal;font-weight:normal;line-height:0.01%;font-family:sans-serif;letter-spacing:0px;word-spacing:0px;fill:#000000;fill-opacity:1;stroke:none;stroke-width:1px;stroke-linecap:butt;stroke-linejoin:miter;stroke-opacity:1"
       id="flowRoot6619"
       xml:space="preserve"><flowRegion
         id="flowRegion6621"><rect
           style="font-size:12.5px"
           y="48.312714"
           x="11.785714"
           height="41.785713"
           width="52.142857"
           id="rect6623" /></flowRegion><flowPara
         style="font-style:italic;font-variant:normal;font-weight:normal;font-stretch:normal;font-size:10px;line-height:1.25;font-family:sans-serif;-inkscape-font-specification:'sans-serif Italic'"
         id="flowPara6625">t</flowPara></flowRoot>
    <path
       style="fill:none;fill-rule:evenodd;stroke:#13a000;stroke-width:1px;stroke-linecap:butt;stroke-linejoin:miter;stroke-opacity:1"
       d="m 232.14286,858.61225 c 6.07143,-6.25 7.67857,-9.82143 12.32142,-9.10714 5.36789,0.82584 4.10714,2.14285 8.21429,9.2857 1.25883,2.18927 3.33373,6.2045 6.42857,7.50001 7.67858,3.21429 4.28572,-15.17857 8.03572,-15.71428 3.75,-0.53572 6.60714,9.10714 6.60714,9.10714"
       id="path7049"
       inkscape:connector-curvature="0"
       sodipodi:nodetypes="cssssc" />
    <path
       style="fill:none;fill-rule:evenodd;stroke:#000000;stroke-width:1px;stroke-linecap:butt;stroke-linejoin:miter;stroke-opacity:1;marker-start:url(#Arrow1Mstart);marker-end:url(#marker5136)"
       d="m 280.31328,872.77918 h -48.48732 v -29.7995"
       id="path7051"
       inkscape:connector-curvature="0"
       sodipodi:nodetypes="ccc" />
    <flowRoot
       xml:space="preserve"
       id="flowRoot7053"
       style="font-style:normal;font-weight:normal;line-height:0.01%;font-family:sans-serif;letter-spacing:0px;word-spacing:0px;fill:#000000;fill-opacity:1;stroke:none;stroke-width:1px;stroke-linecap:butt;stroke-linejoin:miter;stroke-opacity:1"
       transform="translate(236.07143,823.33525)"><flowRegion
         id="flowRegion7055"><rect
           id="rect7057"
           width="52.142857"
           height="41.785713"
           x="11.785714"
           y="48.312714"
           style="font-size:12.5px" /></flowRegion><flowPara
         id="flowPara7059"
         style="font-style:italic;font-variant:normal;font-weight:normal;font-stretch:normal;font-size:10px;line-height:1.25;font-family:sans-serif;-inkscape-font-specification:'sans-serif Italic'">t</flowPara></flowRoot>
    <path
       style="fill:none;fill-rule:evenodd;stroke:#13a000;stroke-width:1;stroke-linecap:butt;stroke-linejoin:miter;stroke-miterlimit:4;stroke-dasharray:1, 1;stroke-dashoffset:0;stroke-opacity:1"
       d="m 231.42857,872.36226 26.42857,72.85714 21.78572,-72.5"
       id="path7074"
       inkscape:connector-curvature="0" />
    <circle
       style="opacity:1;fill:#ffffff;fill-opacity:1;stroke:#0800a0;stroke-width:1.25;stroke-linecap:round;stroke-miterlimit:4;stroke-dasharray:5, 5;stroke-dashoffset:0;stroke-opacity:1"
       id="path4238"
       cx="114.18152"
       cy="959.92279"
       r="73.741135" />
    <path
       style="fill:none;fill-rule:evenodd;stroke:#0800a0;stroke-width:1;stroke-linecap:butt;stroke-linejoin:miter;stroke-miterlimit:4;stroke-dasharray:1, 1;stroke-dashoffset:0;stroke-opacity:1"
       d="M 165,872.7194 145.71428,927.00511 117.5,872.7194"
       id="path7072"
       inkscape:connector-curvature="0" />
    <text
       xml:space="preserve"
       transform="matrix(0.93749998,0,0,0.93749998,18.346516,822.73434)"
       id="text3272"
       style="font-style:normal;font-weight:normal;font-size:40px;line-height:1.25;font-family:sans-serif;white-space:pre;shape-inside:url(#rect3274);fill:#0800a0;fill-opacity:1;stroke:none"><tspan
         x="90.890625"
         y="155.60649"
         id="tspan2707"><tspan
           style="font-style:oblique;font-weight:bold;font-size:26.6667px;font-family:'CMU Sans Serif';-inkscape-font-specification:'CMU Sans Serif Bold Oblique'"
           id="tspan2705">R</tspan></tspan></text>
    <flowRoot
       xml:space="preserve"
       id="flowRoot1419"
       style="font-style:normal;font-weight:normal;line-height:0.01%;font-family:sans-serif;letter-spacing:0px;word-spacing:0px;fill:#000000;fill-opacity:1;stroke:none;stroke-width:1px;stroke-linecap:butt;stroke-linejoin:miter;stroke-opacity:1"
       transform="translate(-16.640914,803.44787)"><flowRegion
         id="flowRegion1415"><rect
           id="rect1413"
           width="52.142857"
           height="41.785713"
           x="11.785714"
           y="48.312714"
           style="font-size:12.5px" /></flowRegion><flowPara
         id="flowPara1417"
         style="font-style:italic;font-variant:normal;font-weight:normal;font-stretch:normal;font-size:10px;line-height:1.25;font-family:sans-serif;-inkscape-font-specification:'sans-serif Italic'">u</flowPara></flowRoot>
    <flowRoot
       xml:space="preserve"
       id="flowRoot1529"
       style="font-style:normal;font-weight:normal;line-height:0.01%;font-family:sans-serif;letter-spacing:0px;word-spacing:0px;fill:#000000;fill-opacity:1;stroke:none;stroke-width:1px;stroke-linecap:butt;stroke-linejoin:miter;stroke-opacity:1"
       transform="translate(97.001245,803.44787)"><flowRegion
         id="flowRegion1525"><rect
           id="rect1523"
           width="52.142857"
           height="41.785713"
           x="11.785714"
           y="48.312714"
           style="font-size:12.5px" /></flowRegion><flowPara
         id="flowPara1527"
         style="font-style:italic;font-variant:normal;font-weight:normal;font-stretch:normal;font-size:10px;line-height:1.25;font-family:sans-serif;-inkscape-font-specification:'sans-serif Italic'">r</flowPara></flowRoot>
    <flowRoot
       xml:space="preserve"
       id="flowRoot1537"
       style="font-style:normal;font-weight:normal;line-height:0.01%;font-family:sans-serif;letter-spacing:0px;word-spacing:0px;fill:#000000;fill-opacity:1;stroke:none;stroke-width:1px;stroke-linecap:butt;stroke-linejoin:miter;stroke-opacity:1"
       transform="translate(211.11691,803.44787)"><flowRegion
         id="flowRegion1533"><rect
           id="rect1531"
           width="52.142857"
           height="41.785713"
           x="11.785714"
           y="48.312714"
           style="font-size:12.5px" /></flowRegion><flowPara
         id="flowPara1535"
         style="font-style:italic;font-variant:normal;font-weight:normal;font-stretch:normal;font-size:10px;line-height:1.25;font-family:sans-serif;-inkscape-font-specification:'sans-serif Italic'">y</flowPara></flowRoot>
  </g>
</svg>
